# MagicaVoxel @ Ephtracy

# group
o tUMBANG PRESO SPRITES

# material
mtllib FlipFlops-0-tUMBANG PRESO SPRITES.mtl
usemtl palette

# normals
vn -1 0 0
vn 1 0 0
vn 0 0 1
vn 0 0 -1
vn 0 -1 0
vn 0 1 0

# texcoords
vt 0.330078 0.5
vt 0.392578 0.5
vt 0.498047 0.5
vt 0.666016 0.5

# verts
v 0.7 0.5 -0.2
v 0.7 0.5 -2
v 0.7 0.8 -0.2
v 0.7 0.8 -2
v 0.9 0.3 -0.2
v 0.9 0.3 -1.7
v 0.9 0.5 1.7
v 0.9 0.5 -0.2
v 0.9 0.5 -1.7
v 0.9 0.5 -2
v 0.9 0.5 -2.2
v 0.9 0.8 1.7
v 0.9 0.8 0.1
v 0.9 0.8 -0.2
v 0.9 0.8 -2
v 0.9 0.8 -2.2
v 0.9 1.1 0.1
v 0.9 1.1 -0.2
v 0.9 1.1 -0.4
v 0.9 1.2 -0.2
v 0.9 1.2 -0.4
v 0.9 1.2 -0.6
v 0.9 1.4 -0.4
v 0.9 1.4 -0.6
v 1.1 0.3 1.7
v 1.1 0.3 -0.2
v 1.1 0.3 -1.7
v 1.1 0.3 -2.2
v 1.1 0.5 1.9
v 1.1 0.5 1.7
v 1.1 0.5 -0.2
v 1.1 0.5 -1.7
v 1.1 0.5 -2.2
v 1.1 0.5 -2.5
v 1.1 0.8 1.9
v 1.1 0.8 1.7
v 1.1 0.8 -2.2
v 1.1 0.8 -2.5
v 1.1 1.2 -0.6
v 1.1 1.2 -1.1
v 1.1 1.4 -0.6
v 1.1 1.4 -1.1
v 1.4 0.3 -2.2
v 1.4 0.3 -2.5
v 1.4 0.5 -2.2
v 1.4 0.5 -2.5
v 1.4 0.5 -2.7
v 1.4 0.8 -2.5
v 1.4 0.8 -2.7
v 1.4 1.2 -1.1
v 1.4 1.2 -1.5
v 1.4 1.4 -1.1
v 1.4 1.4 -1.5
v 1.6 1.1 -1.7
v 1.6 1.1 -2
v 1.6 1.2 -1.5
v 1.6 1.2 -1.7
v 1.6 1.4 -1.5
v 1.6 1.4 -2
v 1.8 0.8 -2.2
v 1.8 0.8 -2.5
v 1.8 1.1 -2
v 1.8 1.1 -2.2
v 1.8 1.1 -2.5
v 1.8 1.2 -2
v 1.8 1.2 -2.2
v 2 1.1 -1.7
v 2 1.1 -2
v 2 1.2 -1.5
v 2 1.2 -1.7
v 2 1.2 -2
v 2 1.4 -1.5
v 2 1.4 -2
v 2.2 1.2 -0.9
v 2.2 1.2 -1.5
v 2.2 1.4 -0.9
v 2.2 1.4 -1.5
v 2.5 0.8 0.1
v 2.5 0.8 -0.2
v 2.5 1.1 0.1
v 2.5 1.1 -0.2
v 2.5 1.1 -0.4
v 2.5 1.2 -0.2
v 2.5 1.2 -0.4
v 2.5 1.2 -0.9
v 2.5 1.4 -0.4
v 2.5 1.4 -0.9
v 1.1 0.8 0.1
v 1.1 0.8 -0.2
v 1.1 1.1 0.1
v 1.1 1.1 -0.2
v 1.1 1.1 -0.4
v 1.1 1.2 -0.2
v 1.1 1.2 -0.4
v 1.1 1.2 -0.6
v 1.1 1.4 -0.4
v 1.1 1.4 -0.6
v 1.4 1.2 -0.6
v 1.4 1.2 -1.1
v 1.4 1.4 -0.6
v 1.4 1.4 -1.1
v 1.6 1.2 -1.1
v 1.6 1.2 -1.5
v 1.6 1.4 -1.1
v 1.6 1.4 -1.5
v 1.8 1.1 -1.7
v 1.8 1.1 -2
v 1.8 1.2 -1.5
v 1.8 1.2 -1.7
v 1.8 1.2 -2
v 1.8 1.4 -1.5
v 1.8 1.4 -2
v 2 0.8 -2.2
v 2 0.8 -2.5
v 2 1.1 -2
v 2 1.1 -2.2
v 2 1.1 -2.5
v 2 1.2 -2
v 2 1.2 -2.2
v 2.2 1.1 -1.7
v 2.2 1.1 -2
v 2.2 1.2 -1.5
v 2.2 1.2 -1.7
v 2.2 1.4 -1.5
v 2.2 1.4 -2
v 2.5 0.3 1.7
v 2.5 0.3 -0.2
v 2.5 0.3 -2.2
v 2.5 0.3 -2.5
v 2.5 0.5 1.9
v 2.5 0.5 1.7
v 2.5 0.5 -0.2
v 2.5 0.5 -2.2
v 2.5 0.5 -2.5
v 2.5 0.5 -2.7
v 2.5 0.8 1.9
v 2.5 0.8 1.7
v 2.5 0.8 -2.5
v 2.5 0.8 -2.7
v 2.5 1.2 -0.9
v 2.5 1.2 -1.5
v 2.5 1.4 -0.9
v 2.5 1.4 -1.5
v 2.6 0.3 -0.2
v 2.6 0.3 -0.3
v 2.6 0.4 -0.2
v 2.6 0.4 -0.3
v 2.7 0.3 -0.3
v 2.7 0.3 -2.2
v 2.7 0.4 -0.2
v 2.7 0.4 -0.3
v 2.7 0.5 1.7
v 2.7 0.5 -0.2
v 2.7 0.5 -2.2
v 2.7 0.5 -2.5
v 2.7 0.8 1.7
v 2.7 0.8 0.1
v 2.7 0.8 -0.2
v 2.7 0.8 -2.2
v 2.7 0.8 -2.5
v 2.7 1.1 0.1
v 2.7 1.1 -0.2
v 2.7 1.1 -0.4
v 2.7 1.2 -0.2
v 2.7 1.2 -0.4
v 2.7 1.2 -0.9
v 2.7 1.4 -0.4
v 2.7 1.4 -0.9
v 2.9 0.5 -0.2
v 2.9 0.5 -2.2
v 2.9 0.8 -0.2
v 2.9 0.8 -2.2
v 1.1 0.5 1.9
v 1.1 0.8 1.9
v 1.4 0.5 1.9
v 1.4 0.8 1.9
v 2.5 0.5 1.9
v 2.5 0.8 1.9
v 0.9 0.5 1.7
v 0.9 0.8 1.7
v 1.1 0.3 1.7
v 1.1 0.5 1.7
v 1.1 0.8 1.7
v 1.4 0.5 1.7
v 2.5 0.3 1.7
v 2.5 0.5 1.7
v 2.5 0.8 1.7
v 2.7 0.5 1.7
v 2.7 0.8 1.7
v 0.9 0.8 0.1
v 0.9 1.1 0.1
v 1.1 0.8 0.1
v 1.1 1.1 0.1
v 2.5 0.8 0.1
v 2.5 1.1 0.1
v 2.7 0.8 0.1
v 2.7 1.1 0.1
v 0.7 0.5 -0.2
v 0.7 0.8 -0.2
v 0.9 0.3 -0.2
v 0.9 0.5 -0.2
v 0.9 0.8 -0.2
v 0.9 1.1 -0.2
v 0.9 1.2 -0.2
v 1.1 0.3 -0.2
v 1.1 0.5 -0.2
v 1.1 1.1 -0.2
v 1.1 1.2 -0.2
v 2.5 0.3 -0.2
v 2.5 0.5 -0.2
v 2.5 1.1 -0.2
v 2.5 1.2 -0.2
v 2.6 0.3 -0.2
v 2.6 0.4 -0.2
v 2.7 0.4 -0.2
v 2.7 0.5 -0.2
v 2.7 0.8 -0.2
v 2.7 1.1 -0.2
v 2.7 1.2 -0.2
v 2.9 0.5 -0.2
v 2.9 0.8 -0.2
v 2.6 0.3 -0.3
v 2.6 0.4 -0.3
v 2.7 0.3 -0.3
v 2.7 0.4 -0.3
v 0.9 1.2 -0.4
v 0.9 1.4 -0.4
v 1.1 1.2 -0.4
v 1.1 1.4 -0.4
v 2.5 1.2 -0.4
v 2.5 1.4 -0.4
v 2.7 1.2 -0.4
v 2.7 1.4 -0.4
v 1.1 1.2 -0.6
v 1.1 1.4 -0.6
v 1.4 1.2 -0.6
v 1.4 1.4 -0.6
v 2.2 1.2 -0.9
v 2.2 1.4 -0.9
v 2.5 1.2 -0.9
v 2.5 1.4 -0.9
v 1.4 1.2 -1.1
v 1.4 1.4 -1.1
v 1.6 1.2 -1.1
v 1.6 1.4 -1.1
v 1.6 1.2 -1.5
v 1.6 1.4 -1.5
v 1.8 1.2 -1.5
v 1.8 1.4 -1.5
v 2 1.2 -1.5
v 2 1.4 -1.5
v 2.2 1.2 -1.5
v 2.2 1.4 -1.5
v 1.6 1.1 -1.7
v 1.6 1.2 -1.7
v 1.8 1.1 -1.7
v 1.8 1.2 -1.7
v 2 1.1 -1.7
v 2 1.2 -1.7
v 2.2 1.1 -1.7
v 2.2 1.2 -1.7
v 1.8 1.1 -2
v 1.8 1.2 -2
v 2 1.1 -2
v 2 1.2 -2
v 1.8 0.8 -2.2
v 1.8 1.1 -2.2
v 2 0.8 -2.2
v 2 1.1 -2.2
v 0.9 0.8 -0.2
v 0.9 1.1 -0.2
v 1.1 0.8 -0.2
v 1.1 1.1 -0.2
v 2.5 0.8 -0.2
v 2.5 1.1 -0.2
v 2.7 0.8 -0.2
v 2.7 1.1 -0.2
v 0.9 1.1 -0.4
v 0.9 1.2 -0.4
v 1.1 1.1 -0.4
v 1.1 1.2 -0.4
v 2.5 1.1 -0.4
v 2.5 1.2 -0.4
v 2.7 1.1 -0.4
v 2.7 1.2 -0.4
v 0.9 1.2 -0.6
v 0.9 1.4 -0.6
v 1.1 1.2 -0.6
v 1.1 1.4 -0.6
v 2.5 1.2 -0.9
v 2.5 1.4 -0.9
v 2.7 1.2 -0.9
v 2.7 1.4 -0.9
v 1.1 1.2 -1.1
v 1.1 1.4 -1.1
v 1.4 1.2 -1.1
v 1.4 1.4 -1.1
v 1.4 1.2 -1.5
v 1.4 1.4 -1.5
v 1.6 1.2 -1.5
v 1.6 1.4 -1.5
v 2.2 1.2 -1.5
v 2.2 1.4 -1.5
v 2.5 1.2 -1.5
v 2.5 1.4 -1.5
v 0.9 0.3 -1.7
v 0.9 0.5 -1.7
v 1.1 0.3 -1.7
v 1.1 0.5 -1.7
v 0.7 0.5 -2
v 0.7 0.8 -2
v 0.9 0.5 -2
v 0.9 0.8 -2
v 1.6 1.1 -2
v 1.6 1.4 -2
v 1.8 1.1 -2
v 1.8 1.2 -2
v 1.8 1.4 -2
v 2 1.1 -2
v 2 1.2 -2
v 2 1.4 -2
v 2.2 1.1 -2
v 2.2 1.4 -2
v 0.9 0.5 -2.2
v 0.9 0.8 -2.2
v 1.1 0.3 -2.2
v 1.1 0.5 -2.2
v 1.1 0.8 -2.2
v 1.4 0.3 -2.2
v 1.4 0.5 -2.2
v 1.8 1.1 -2.2
v 1.8 1.2 -2.2
v 2 1.1 -2.2
v 2 1.2 -2.2
v 2.5 0.3 -2.2
v 2.5 0.5 -2.2
v 2.7 0.3 -2.2
v 2.7 0.5 -2.2
v 2.7 0.8 -2.2
v 2.9 0.5 -2.2
v 2.9 0.8 -2.2
v 1.1 0.5 -2.5
v 1.1 0.8 -2.5
v 1.4 0.3 -2.5
v 1.4 0.5 -2.5
v 1.4 0.8 -2.5
v 1.6 0.5 -2.5
v 1.8 0.8 -2.5
v 1.8 1.1 -2.5
v 2 0.5 -2.5
v 2 0.8 -2.5
v 2 1.1 -2.5
v 2.5 0.3 -2.5
v 2.5 0.5 -2.5
v 2.5 0.8 -2.5
v 2.7 0.5 -2.5
v 2.7 0.8 -2.5
v 1.4 0.5 -2.7
v 1.4 0.8 -2.7
v 1.6 0.5 -2.7
v 1.6 0.8 -2.7
v 2 0.5 -2.7
v 2 0.8 -2.7
v 2.5 0.5 -2.7
v 2.5 0.8 -2.7
v 1.1 0.3 1.7
v 2.5 0.3 1.7
v 0.9 0.3 -0.2
v 1.1 0.3 -0.2
v 2.5 0.3 -0.2
v 2.6 0.3 -0.2
v 2.6 0.3 -0.3
v 2.7 0.3 -0.3
v 0.9 0.3 -1.7
v 1.1 0.3 -1.7
v 1.1 0.3 -2.2
v 1.4 0.3 -2.2
v 2.5 0.3 -2.2
v 2.7 0.3 -2.2
v 1.4 0.3 -2.5
v 2.5 0.3 -2.5
v 2.6 0.4 -0.2
v 2.7 0.4 -0.2
v 2.6 0.4 -0.3
v 2.7 0.4 -0.3
v 1.1 0.5 1.9
v 1.4 0.5 1.9
v 2.5 0.5 1.9
v 0.9 0.5 1.7
v 1.1 0.5 1.7
v 1.4 0.5 1.7
v 2.5 0.5 1.7
v 2.7 0.5 1.7
v 0.7 0.5 -0.2
v 0.9 0.5 -0.2
v 1.1 0.5 -0.2
v 2.5 0.5 -0.2
v 2.7 0.5 -0.2
v 2.9 0.5 -0.2
v 0.9 0.5 -1.7
v 1.1 0.5 -1.7
v 0.7 0.5 -2
v 0.9 0.5 -2
v 0.9 0.5 -2.2
v 1.1 0.5 -2.2
v 1.4 0.5 -2.2
v 2.5 0.5 -2.2
v 2.7 0.5 -2.2
v 2.9 0.5 -2.2
v 1.1 0.5 -2.5
v 1.4 0.5 -2.5
v 1.6 0.5 -2.5
v 2 0.5 -2.5
v 2.5 0.5 -2.5
v 2.7 0.5 -2.5
v 1.4 0.5 -2.7
v 1.6 0.5 -2.7
v 2 0.5 -2.7
v 2.5 0.5 -2.7
v 0.9 1.1 -0.2
v 1.1 1.1 -0.2
v 2.5 1.1 -0.2
v 2.7 1.1 -0.2
v 0.9 1.1 -0.4
v 1.1 1.1 -0.4
v 2.5 1.1 -0.4
v 2.7 1.1 -0.4
v 1.6 1.1 -1.7
v 1.8 1.1 -1.7
v 2 1.1 -1.7
v 2.2 1.1 -1.7
v 1.6 1.1 -2
v 1.8 1.1 -2
v 2 1.1 -2
v 2.2 1.1 -2
v 1.8 1.1 -2.2
v 2 1.1 -2.2
v 0.9 1.2 -0.4
v 1.1 1.2 -0.4
v 2.5 1.2 -0.4
v 2.7 1.2 -0.4
v 0.9 1.2 -0.6
v 1.1 1.2 -0.6
v 1.4 1.2 -0.6
v 2.2 1.2 -0.9
v 2.5 1.2 -0.9
v 2.7 1.2 -0.9
v 1.1 1.2 -1.1
v 1.4 1.2 -1.1
v 1.6 1.2 -1.1
v 1.4 1.2 -1.5
v 1.6 1.2 -1.5
v 1.8 1.2 -1.5
v 2 1.2 -1.5
v 2.2 1.2 -1.5
v 2.5 1.2 -1.5
v 1.6 1.2 -1.7
v 1.8 1.2 -1.7
v 2 1.2 -1.7
v 2.2 1.2 -1.7
v 1.1 0.8 1.9
v 1.4 0.8 1.9
v 2.5 0.8 1.9
v 0.9 0.8 1.7
v 1.1 0.8 1.7
v 1.4 0.8 1.7
v 2.5 0.8 1.7
v 2.7 0.8 1.7
v 0.9 0.8 0.1
v 1.1 0.8 0.1
v 2.5 0.8 0.1
v 2.7 0.8 0.1
v 0.7 0.8 -0.2
v 0.9 0.8 -0.2
v 1.1 0.8 -0.2
v 2.5 0.8 -0.2
v 2.7 0.8 -0.2
v 2.9 0.8 -0.2
v 0.9 0.8 -1.7
v 1.1 0.8 -1.7
v 0.7 0.8 -2
v 0.9 0.8 -2
v 0.9 0.8 -2.2
v 1.1 0.8 -2.2
v 1.4 0.8 -2.2
v 1.8 0.8 -2.2
v 2 0.8 -2.2
v 2.5 0.8 -2.2
v 2.7 0.8 -2.2
v 2.9 0.8 -2.2
v 1.1 0.8 -2.5
v 1.4 0.8 -2.5
v 1.6 0.8 -2.5
v 1.8 0.8 -2.5
v 2 0.8 -2.5
v 2.5 0.8 -2.5
v 2.7 0.8 -2.5
v 1.4 0.8 -2.7
v 1.6 0.8 -2.7
v 2 0.8 -2.7
v 2.5 0.8 -2.7
v 0.9 1.1 0.1
v 1.1 1.1 0.1
v 2.5 1.1 0.1
v 2.7 1.1 0.1
v 0.9 1.1 -0.2
v 1.1 1.1 -0.2
v 2.5 1.1 -0.2
v 2.7 1.1 -0.2
v 1.8 1.1 -2.2
v 2 1.1 -2.2
v 1.8 1.1 -2.5
v 2 1.1 -2.5
v 0.9 1.2 -0.2
v 1.1 1.2 -0.2
v 2.5 1.2 -0.2
v 2.7 1.2 -0.2
v 0.9 1.2 -0.4
v 1.1 1.2 -0.4
v 2.5 1.2 -0.4
v 2.7 1.2 -0.4
v 1.8 1.2 -2
v 2 1.2 -2
v 1.8 1.2 -2.2
v 2 1.2 -2.2
v 0.9 1.4 -0.4
v 1.1 1.4 -0.4
v 2.5 1.4 -0.4
v 2.7 1.4 -0.4
v 0.9 1.4 -0.6
v 1.1 1.4 -0.6
v 1.4 1.4 -0.6
v 2.2 1.4 -0.9
v 2.5 1.4 -0.9
v 2.7 1.4 -0.9
v 1.1 1.4 -1.1
v 1.4 1.4 -1.1
v 1.6 1.4 -1.1
v 1.4 1.4 -1.5
v 1.6 1.4 -1.5
v 1.8 1.4 -1.5
v 2 1.4 -1.5
v 2.2 1.4 -1.5
v 2.5 1.4 -1.5
v 1.6 1.4 -2
v 1.8 1.4 -2
v 2 1.4 -2
v 2.2 1.4 -2

# faces
f 3/4/1 2/4/1 1/4/1
f 4/4/1 2/4/1 3/4/1
f 8/3/1 6/3/1 5/3/1
f 9/3/1 6/3/1 8/3/1
f 12/4/1 8/4/1 7/4/1
f 13/4/1 8/4/1 12/4/1
f 14/4/1 8/4/1 13/4/1
f 15/4/1 11/4/1 10/4/1
f 16/4/1 11/4/1 15/4/1
f 17/2/1 14/2/1 13/2/1
f 18/2/1 14/2/1 17/2/1
f 20/2/1 19/2/1 18/2/1
f 21/2/1 19/2/1 20/2/1
f 23/2/1 22/2/1 21/2/1
f 24/2/1 22/2/1 23/2/1
f 30/3/1 26/3/1 25/3/1
f 31/3/1 26/3/1 30/3/1
f 32/3/1 28/3/1 27/3/1
f 33/3/1 28/3/1 32/3/1
f 35/4/1 30/4/1 29/4/1
f 36/4/1 30/4/1 35/4/1
f 37/4/1 34/4/1 33/4/1
f 38/4/1 34/4/1 37/4/1
f 41/2/1 40/2/1 39/2/1
f 42/2/1 40/2/1 41/2/1
f 45/3/1 44/3/1 43/3/1
f 46/3/1 44/3/1 45/3/1
f 48/4/1 47/4/1 46/4/1
f 49/4/1 47/4/1 48/4/1
f 52/2/1 51/2/1 50/2/1
f 53/2/1 51/2/1 52/2/1
f 57/2/1 55/2/1 54/2/1
f 58/2/1 57/2/1 56/2/1
f 59/2/1 55/2/1 57/2/1
f 59/2/1 57/2/1 58/2/1
f 63/2/1 61/2/1 60/2/1
f 64/2/1 61/2/1 63/2/1
f 65/2/1 63/2/1 62/2/1
f 66/2/1 63/2/1 65/2/1
f 70/2/1 68/2/1 67/2/1
f 71/2/1 68/2/1 70/2/1
f 72/2/1 70/2/1 69/2/1
f 72/2/1 71/2/1 70/2/1
f 73/2/1 71/2/1 72/2/1
f 76/2/1 75/2/1 74/2/1
f 77/2/1 75/2/1 76/2/1
f 80/2/1 79/2/1 78/2/1
f 81/2/1 79/2/1 80/2/1
f 83/2/1 82/2/1 81/2/1
f 84/2/1 82/2/1 83/2/1
f 86/2/1 85/2/1 84/2/1
f 87/2/1 85/2/1 86/2/1
f 88/2/2 89/2/2 90/2/2
f 90/2/2 89/2/2 91/2/2
f 91/2/2 92/2/2 93/2/2
f 93/2/2 92/2/2 94/2/2
f 94/2/2 95/2/2 96/2/2
f 96/2/2 95/2/2 97/2/2
f 98/2/2 99/2/2 100/2/2
f 100/2/2 99/2/2 101/2/2
f 102/2/2 103/2/2 104/2/2
f 104/2/2 103/2/2 105/2/2
f 106/2/2 107/2/2 109/2/2
f 109/2/2 107/2/2 110/2/2
f 108/2/2 109/2/2 111/2/2
f 109/2/2 110/2/2 111/2/2
f 111/2/2 110/2/2 112/2/2
f 113/2/2 114/2/2 116/2/2
f 116/2/2 114/2/2 117/2/2
f 115/2/2 116/2/2 118/2/2
f 118/2/2 116/2/2 119/2/2
f 120/2/2 121/2/2 123/2/2
f 122/2/2 123/2/2 124/2/2
f 123/2/2 121/2/2 125/2/2
f 124/2/2 123/2/2 125/2/2
f 126/3/2 127/3/2 131/3/2
f 131/3/2 127/3/2 132/3/2
f 128/3/2 129/3/2 133/3/2
f 133/3/2 129/3/2 134/3/2
f 130/3/2 131/3/2 136/3/2
f 136/3/2 131/3/2 137/3/2
f 134/1/2 135/1/2 138/1/2
f 138/1/2 135/1/2 139/1/2
f 140/2/2 141/2/2 142/2/2
f 142/2/2 141/2/2 143/2/2
f 144/3/2 145/3/2 146/3/2
f 146/3/2 145/3/2 147/3/2
f 148/3/2 149/3/2 151/3/2
f 150/3/2 151/3/2 153/3/2
f 151/3/2 149/3/2 154/3/2
f 153/3/2 151/3/2 154/3/2
f 152/1/2 153/1/2 156/1/2
f 156/1/2 153/1/2 157/1/2
f 157/1/2 153/1/2 158/1/2
f 154/1/2 155/1/2 159/1/2
f 159/1/2 155/1/2 160/1/2
f 157/2/2 158/2/2 161/2/2
f 161/2/2 158/2/2 162/2/2
f 162/2/2 163/2/2 164/2/2
f 164/2/2 163/2/2 165/2/2
f 165/2/2 166/2/2 167/2/2
f 167/2/2 166/2/2 168/2/2
f 169/1/2 170/1/2 171/1/2
f 171/1/2 170/1/2 172/1/2
f 175/4/3 174/4/3 173/4/3
f 176/4/3 174/4/3 175/4/3
f 177/3/3 176/3/3 175/3/3
f 178/3/3 176/3/3 177/3/3
f 182/4/3 180/4/3 179/4/3
f 183/4/3 180/4/3 182/4/3
f 184/3/3 182/3/3 181/3/3
f 185/3/3 184/3/3 181/3/3
f 186/3/3 184/3/3 185/3/3
f 188/1/3 187/1/3 186/1/3
f 189/1/3 187/1/3 188/1/3
f 192/2/3 191/2/3 190/2/3
f 193/2/3 191/2/3 192/2/3
f 196/2/3 195/2/3 194/2/3
f 197/2/3 195/2/3 196/2/3
f 201/4/3 199/4/3 198/4/3
f 202/4/3 199/4/3 201/4/3
f 205/3/3 201/3/3 200/3/3
f 206/3/3 201/3/3 205/3/3
f 207/2/3 204/2/3 203/2/3
f 208/2/3 204/2/3 207/2/3
f 213/3/3 210/3/3 209/3/3
f 214/3/3 210/3/3 213/3/3
f 215/3/3 210/3/3 214/3/3
f 216/3/3 210/3/3 215/3/3
f 218/2/3 212/2/3 211/2/3
f 219/2/3 212/2/3 218/2/3
f 220/1/3 217/1/3 216/1/3
f 221/1/3 217/1/3 220/1/3
f 224/3/3 223/3/3 222/3/3
f 225/3/3 223/3/3 224/3/3
f 228/2/3 227/2/3 226/2/3
f 229/2/3 227/2/3 228/2/3
f 232/2/3 231/2/3 230/2/3
f 233/2/3 231/2/3 232/2/3
f 236/2/3 235/2/3 234/2/3
f 237/2/3 235/2/3 236/2/3
f 240/2/3 239/2/3 238/2/3
f 241/2/3 239/2/3 240/2/3
f 244/2/3 243/2/3 242/2/3
f 245/2/3 243/2/3 244/2/3
f 248/2/3 247/2/3 246/2/3
f 249/2/3 247/2/3 248/2/3
f 252/2/3 251/2/3 250/2/3
f 253/2/3 251/2/3 252/2/3
f 256/2/3 255/2/3 254/2/3
f 257/2/3 255/2/3 256/2/3
f 260/2/3 259/2/3 258/2/3
f 261/2/3 259/2/3 260/2/3
f 264/2/3 263/2/3 262/2/3
f 265/2/3 263/2/3 264/2/3
f 268/2/3 267/2/3 266/2/3
f 269/2/3 267/2/3 268/2/3
f 270/2/4 271/2/4 272/2/4
f 272/2/4 271/2/4 273/2/4
f 274/2/4 275/2/4 276/2/4
f 276/2/4 275/2/4 277/2/4
f 278/2/4 279/2/4 280/2/4
f 280/2/4 279/2/4 281/2/4
f 282/2/4 283/2/4 284/2/4
f 284/2/4 283/2/4 285/2/4
f 286/2/4 287/2/4 288/2/4
f 288/2/4 287/2/4 289/2/4
f 290/2/4 291/2/4 292/2/4
f 292/2/4 291/2/4 293/2/4
f 294/2/4 295/2/4 296/2/4
f 296/2/4 295/2/4 297/2/4
f 298/2/4 299/2/4 300/2/4
f 300/2/4 299/2/4 301/2/4
f 302/2/4 303/2/4 304/2/4
f 304/2/4 303/2/4 305/2/4
f 306/3/4 307/3/4 308/3/4
f 308/3/4 307/3/4 309/3/4
f 310/4/4 311/4/4 312/4/4
f 312/4/4 311/4/4 313/4/4
f 314/2/4 315/2/4 316/2/4
f 316/2/4 315/2/4 317/2/4
f 317/2/4 315/2/4 318/2/4
f 319/2/4 320/2/4 322/2/4
f 320/2/4 321/2/4 322/2/4
f 322/2/4 321/2/4 323/2/4
f 324/4/4 325/4/4 327/4/4
f 327/4/4 325/4/4 328/4/4
f 326/3/4 327/3/4 329/3/4
f 329/3/4 327/3/4 330/3/4
f 331/2/4 332/2/4 333/2/4
f 333/2/4 332/2/4 334/2/4
f 335/3/4 336/3/4 337/3/4
f 337/3/4 336/3/4 338/3/4
f 338/1/4 339/1/4 340/1/4
f 340/1/4 339/1/4 341/1/4
f 342/4/4 343/4/4 345/4/4
f 345/4/4 343/4/4 346/4/4
f 344/3/4 345/3/4 347/3/4
f 344/3/4 347/3/4 350/3/4
f 348/2/4 349/2/4 351/2/4
f 351/2/4 349/2/4 352/2/4
f 344/3/4 350/3/4 353/3/4
f 353/3/4 350/3/4 354/3/4
f 354/1/4 355/1/4 356/1/4
f 356/1/4 355/1/4 357/1/4
f 358/4/4 359/4/4 360/4/4
f 360/4/4 359/4/4 361/4/4
f 360/3/4 361/3/4 362/3/4
f 362/3/4 361/3/4 363/3/4
f 362/1/4 363/1/4 364/1/4
f 364/1/4 363/1/4 365/1/4
f 369/3/5 367/3/5 366/3/5
f 370/3/5 367/3/5 369/3/5
f 372/3/5 369/3/5 368/3/5
f 372/3/5 371/3/5 370/3/5
f 372/3/5 370/3/5 369/3/5
f 374/3/5 372/3/5 368/3/5
f 374/3/5 373/3/5 372/3/5
f 375/3/5 373/3/5 374/3/5
f 376/3/5 373/3/5 375/3/5
f 377/3/5 373/3/5 376/3/5
f 378/3/5 373/3/5 377/3/5
f 379/3/5 373/3/5 378/3/5
f 380/3/5 378/3/5 377/3/5
f 381/3/5 378/3/5 380/3/5
f 384/3/5 383/3/5 382/3/5
f 385/3/5 383/3/5 384/3/5
f 390/4/5 387/4/5 386/4/5
f 391/3/5 388/3/5 387/3/5
f 391/4/5 387/4/5 390/4/5
f 392/3/5 388/3/5 391/3/5
f 395/4/5 390/4/5 389/4/5
f 396/4/5 390/4/5 395/4/5
f 397/1/5 393/1/5 392/1/5
f 398/1/5 393/1/5 397/1/5
f 400/4/5 395/4/5 394/4/5
f 402/4/5 400/4/5 394/4/5
f 402/4/5 401/4/5 400/4/5
f 403/4/5 401/4/5 402/4/5
f 404/4/5 401/4/5 403/4/5
f 405/4/5 401/4/5 404/4/5
f 408/1/5 399/1/5 398/1/5
f 409/1/5 399/1/5 408/1/5
f 410/4/5 406/4/5 405/4/5
f 411/4/5 406/4/5 410/4/5
f 414/1/5 408/1/5 407/1/5
f 415/1/5 408/1/5 414/1/5
f 416/4/5 412/4/5 411/4/5
f 417/3/5 413/3/5 412/3/5
f 417/4/5 412/4/5 416/4/5
f 418/1/5 414/1/5 413/1/5
f 418/3/5 413/3/5 417/3/5
f 419/1/5 414/1/5 418/1/5
f 424/2/5 421/2/5 420/2/5
f 425/2/5 421/2/5 424/2/5
f 426/2/5 423/2/5 422/2/5
f 427/2/5 423/2/5 426/2/5
f 432/2/5 429/2/5 428/2/5
f 433/2/5 429/2/5 432/2/5
f 434/2/5 431/2/5 430/2/5
f 435/2/5 431/2/5 434/2/5
f 436/2/5 434/2/5 433/2/5
f 437/2/5 434/2/5 436/2/5
f 442/2/5 439/2/5 438/2/5
f 443/2/5 439/2/5 442/2/5
f 446/2/5 441/2/5 440/2/5
f 447/2/5 441/2/5 446/2/5
f 448/2/5 444/2/5 443/2/5
f 449/2/5 444/2/5 448/2/5
f 451/2/5 450/2/5 449/2/5
f 452/2/5 450/2/5 451/2/5
f 455/2/5 446/2/5 445/2/5
f 456/2/5 446/2/5 455/2/5
f 457/2/5 453/2/5 452/2/5
f 458/2/5 453/2/5 457/2/5
f 459/2/5 455/2/5 454/2/5
f 460/2/5 455/2/5 459/2/5
f 461/4/6 462/4/6 465/4/6
f 462/3/6 463/3/6 466/3/6
f 465/4/6 462/4/6 466/4/6
f 466/3/6 463/3/6 467/3/6
f 464/4/6 465/4/6 469/4/6
f 465/3/6 466/3/6 470/3/6
f 469/4/6 465/4/6 470/4/6
f 466/3/6 467/3/6 470/3/6
f 467/1/6 468/1/6 471/1/6
f 470/3/6 467/3/6 471/3/6
f 471/1/6 468/1/6 472/1/6
f 470/3/6 471/3/6 475/3/6
f 475/3/6 471/3/6 476/3/6
f 476/3/6 477/3/6 479/3/6
f 473/4/6 474/4/6 479/4/6
f 475/3/6 476/3/6 479/3/6
f 474/3/6 475/3/6 479/3/6
f 479/3/6 477/3/6 480/3/6
f 473/4/6 479/4/6 481/4/6
f 479/4/6 480/4/6 481/4/6
f 481/4/6 480/4/6 482/4/6
f 482/4/6 480/4/6 483/4/6
f 480/3/6 477/3/6 484/3/6
f 483/4/6 480/4/6 484/4/6
f 484/3/6 477/3/6 485/3/6
f 485/3/6 477/3/6 486/3/6
f 486/3/6 477/3/6 487/3/6
f 487/3/6 477/3/6 488/3/6
f 477/1/6 478/1/6 489/1/6
f 488/3/6 477/3/6 489/3/6
f 489/1/6 478/1/6 490/1/6
f 484/4/6 485/4/6 491/4/6
f 485/3/6 486/3/6 492/3/6
f 491/4/6 485/4/6 492/4/6
f 492/3/6 486/3/6 493/3/6
f 493/3/6 486/3/6 494/3/6
f 487/3/6 488/3/6 495/3/6
f 488/1/6 489/1/6 496/1/6
f 495/3/6 488/3/6 496/3/6
f 496/1/6 489/1/6 497/1/6
f 492/4/6 493/4/6 498/4/6
f 493/3/6 494/3/6 499/3/6
f 498/4/6 493/4/6 499/4/6
f 494/3/6 495/3/6 499/3/6
f 495/1/6 496/1/6 500/1/6
f 499/3/6 495/3/6 500/3/6
f 500/1/6 496/1/6 501/1/6
f 502/2/6 503/2/6 506/2/6
f 506/2/6 503/2/6 507/2/6
f 504/2/6 505/2/6 508/2/6
f 508/2/6 505/2/6 509/2/6
f 510/2/6 511/2/6 512/2/6
f 512/2/6 511/2/6 513/2/6
f 514/2/6 515/2/6 518/2/6
f 518/2/6 515/2/6 519/2/6
f 516/2/6 517/2/6 520/2/6
f 520/2/6 517/2/6 521/2/6
f 522/2/6 523/2/6 524/2/6
f 524/2/6 523/2/6 525/2/6
f 526/2/6 527/2/6 530/2/6
f 530/2/6 527/2/6 531/2/6
f 528/2/6 529/2/6 534/2/6
f 534/2/6 529/2/6 535/2/6
f 531/2/6 532/2/6 536/2/6
f 536/2/6 532/2/6 537/2/6
f 537/2/6 538/2/6 539/2/6
f 539/2/6 538/2/6 540/2/6
f 533/2/6 534/2/6 543/2/6
f 543/2/6 534/2/6 544/2/6
f 540/2/6 541/2/6 545/2/6
f 545/2/6 541/2/6 546/2/6
f 542/2/6 543/2/6 547/2/6
f 547/2/6 543/2/6 548/2/6
